<svg width="1200" height="340" viewBox="0 0 1200 340" fill="none" xmlns="http://www.w3.org/2000/svg">
  <defs>
    <linearGradient id="bg" x1="0" y1="0" x2="1200" y2="340" gradientUnits="userSpaceOnUse">
      <stop stop-color="#080B14"/>
      <stop offset="0.48" stop-color="#11182D"/>
      <stop offset="1" stop-color="#090D18"/>
    </linearGradient>
    <linearGradient id="accent" x1="175" y1="85" x2="1015" y2="275" gradientUnits="userSpaceOnUse">
      <stop stop-color="#8B5CF6"/>
      <stop offset="0.5" stop-color="#4F8CFF"/>
      <stop offset="1" stop-color="#22D3EE"/>
    </linearGradient>
    <radialGradient id="glow1" cx="0" cy="0" r="1" gradientTransform="translate(1000 65) rotate(145) scale(310 200)" gradientUnits="userSpaceOnUse">
      <stop stop-color="#22D3EE" stop-opacity="0.22"/>
      <stop offset="1" stop-color="#22D3EE" stop-opacity="0"/>
    </radialGradient>
    <radialGradient id="glow2" cx="0" cy="0" r="1" gradientTransform="translate(155 310) rotate(-28) scale(340 210)" gradientUnits="userSpaceOnUse">
      <stop stop-color="#8B5CF6" stop-opacity="0.25"/>
      <stop offset="1" stop-color="#8B5CF6" stop-opacity="0"/>
    </radialGradient>
    <pattern id="grid" width="44" height="44" patternUnits="userSpaceOnUse">
      <path d="M44 0H0V44" stroke="#A5B4FC" stroke-opacity="0.055"/>
    </pattern>
    <filter id="shadow" x="-20%" y="-20%" width="140%" height="140%">
      <feGaussianBlur stdDeviation="18"/>
    </filter>
  </defs>

  <rect width="1200" height="340" rx="28" fill="url(#bg)"/>
  <rect width="1200" height="340" rx="28" fill="url(#grid)"/>
  <rect width="1200" height="340" rx="28" fill="url(#glow1)"/>
  <rect width="1200" height="340" rx="28" fill="url(#glow2)"/>

  <circle cx="1008" cy="82" r="93" fill="#22D3EE" fill-opacity="0.08" filter="url(#shadow)"/>
  <circle cx="1114" cy="258" r="112" fill="#8B5CF6" fill-opacity="0.08" filter="url(#shadow)"/>

  <rect x="72" y="66" width="10" height="208" rx="5" fill="url(#accent)"/>

  <text x="112" y="118" fill="#94A3B8" font-family="Arial, Helvetica, sans-serif" font-size="21" font-weight="700" letter-spacing="5">CODEBYAHDA</text>
  <text x="110" y="180" fill="#F8FAFC" font-family="Arial, Helvetica, sans-serif" font-size="42" font-weight="700">Muhammad Ahda Briliantama</text>
  <text x="112" y="225" fill="url(#accent)" font-family="Arial, Helvetica, sans-serif" font-size="23" font-weight="700">AI • Cybersecurity • Full-Stack Development</text>
  <text x="112" y="265" fill="#CBD5E1" font-family="Arial, Helvetica, sans-serif" font-size="19">Building secure, intelligent, and useful software.</text>

  <g transform="translate(930 130)">
    <rect width="182" height="78" rx="22" fill="#0F172A" fill-opacity="0.78" stroke="#64748B" stroke-opacity="0.25"/>
    <path d="M40 48L57 31L70 44L93 21L116 44L139 27" stroke="url(#accent)" stroke-width="5" stroke-linecap="round" stroke-linejoin="round"/>
    <circle cx="40" cy="48" r="4" fill="#8B5CF6"/>
    <circle cx="57" cy="31" r="4" fill="#7C6CF6"/>
    <circle cx="70" cy="44" r="4" fill="#647CFA"/>
    <circle cx="93" cy="21" r="4" fill="#4F8CFF"/>
    <circle cx="116" cy="44" r="4" fill="#38A4F4"/>
    <circle cx="139" cy="27" r="4" fill="#22D3EE"/>
  </g>

  <rect x="1" y="1" width="1198" height="338" rx="27" stroke="url(#accent)" stroke-opacity="0.34" stroke-width="2"/>
</svg>